<svg xmlns="http://www.w3.org/2000/svg" width="1024" height="1024" viewBox="0 0 1024 1024">
  <defs>
    <linearGradient id="bg" x1="0" y1="0" x2="0" y2="1">
      <stop offset="0" stop-color="#0A84FF"/>
      <stop offset="1" stop-color="#0056D6"/>
    </linearGradient>
  </defs>
  <rect width="1024" height="1024" rx="228" ry="228" fill="url(#bg)"/>
  <g>
    <path d="M487.4,310.6 A250,250 0 0 1 686.5,435.0" fill="none" stroke="#fff" stroke-width="26" stroke-linecap="round" opacity="0.92"/>
    <path d="M493.7,220.8 A340,340 0 0 1 764.4,390.0" fill="none" stroke="#fff" stroke-width="26" stroke-linecap="round" opacity="0.69"/>
    <path d="M500.0,131.0 A430,430 0 0 1 842.4,345.0" fill="none" stroke="#fff" stroke-width="26" stroke-linecap="round" opacity="0.47"/>
  </g>
  <g transform="rotate(-6 512 524)" fill="#fff">
    <path d="M785.1,694.6 A322,322 0 1 1 245.0,343.9 L356.1,418.9 A188,188 0 1 0 671.4,623.6 Z"/>
    <circle cx="728.3" cy="659.1" r="116"/>
    <circle cx="300.6" cy="381.4" r="116"/>
  </g>
</svg>
